<?xml version="1.0" standalone="no"?>
<!DOCTYPE svg PUBLIC "-//W3C//DTD SVG 20010904//EN"
 "http://www.w3.org/TR/2001/REC-SVG-20010904/DTD/svg10.dtd">
<svg version="1.0" xmlns="http://www.w3.org/2000/svg"
 width="728.000000pt" height="551.000000pt" viewBox="0 0 728.000000 551.000000"
 preserveAspectRatio="xMidYMid meet">

<g transform="translate(0.000000,551.000000) scale(0.100000,-0.100000)"
fill="#000000" stroke="none">
<path d="M5150 4970 c-18 -18 -21 -30 -17 -62 3 -22 10 -45 15 -50 6 -6 8 0 5
16 -3 15 -1 26 6 26 6 0 11 -7 11 -15 0 -8 5 -15 10 -15 6 0 10 6 10 14 0 9
17 16 50 21 38 5 50 11 50 24 0 27 -34 52 -78 58 -32 4 -44 1 -62 -17z"/>
<path d="M5102 4773 c-7 -3 -18 -17 -24 -32 -10 -27 -12 -189 -2 -215 4 -11 0
-13 -15 -9 -19 5 -21 1 -21 -34 0 -43 21 -194 45 -316 8 -43 15 -85 15 -93 0
-8 -18 -34 -40 -58 -40 -43 -41 -45 -27 -78 17 -40 40 -60 70 -62 19 -1 22 -7
23 -49 1 -27 5 -52 10 -56 16 -15 81 -32 97 -25 25 9 21 26 -12 54 -29 24 -30
27 -32 128 l-3 104 57 54 c31 30 60 65 63 79 4 14 0 69 -7 122 -11 84 -16 99
-43 126 -17 17 -32 42 -33 56 -1 14 -7 49 -14 78 -15 68 -5 119 32 156 20 20
28 35 24 48 -8 23 -21 25 -29 4 -7 -20 -34 -19 -81 5 -22 11 -39 20 -40 19 0
0 -6 -3 -13 -6z m102 -558 c7 -36 2 -55 -15 -55 -5 0 -9 20 -9 45 0 54 15 60
24 10z m-139 -235 c3 -5 2 -10 -4 -10 -5 0 -13 5 -16 10 -3 6 -2 10 4 10 5 0
13 -4 16 -10z m48 -30 c6 -24 -8 -36 -17 -14 -8 22 -7 34 3 34 5 0 11 -9 14
-20z"/>
<path d="M2665 4505 c-33 -20 -67 -40 -75 -45 -8 -5 -55 -32 -105 -60 -107
-60 -254 -146 -275 -160 -8 -5 -55 -32 -105 -60 -49 -28 -119 -69 -155 -91
-36 -22 -78 -46 -95 -55 -16 -8 -59 -33 -95 -55 -36 -21 -76 -45 -90 -52 -14
-6 -29 -15 -35 -20 -23 -19 -246 -147 -255 -147 -6 0 -10 -4 -10 -8 0 -4 -20
-18 -45 -30 -24 -12 -63 -38 -85 -58 -34 -31 -40 -42 -35 -63 4 -17 3 -21 -3
-12 -10 14 -27 -849 -21 -1047 5 -154 9 -156 154 -75 44 24 87 48 95 53 51 31
216 126 225 129 5 2 28 15 50 29 22 15 41 26 41 27 1 0 10 95 19 212 17 204
16 263 -5 263 -6 0 -11 -66 -12 -167 l-2 -168 -6 169 c-5 161 -6 169 -28 184
l-22 14 0 -91 c0 -74 -3 -91 -15 -91 -12 0 -15 18 -15 100 0 94 -1 100 -24
115 -28 19 -40 46 -60 134 -8 36 -22 69 -31 73 -19 11 -20 57 0 64 11 5 12 10
4 26 -13 23 -8 31 14 22 13 -5 87 -161 87 -184 0 -4 9 -6 20 -3 17 5 20 0 20
-27 0 -30 2 -32 28 -28 16 2 34 -2 41 -9 18 -19 36 -16 68 11 l28 25 -21 15
c-26 18 -38 66 -17 66 7 0 17 -10 22 -22 16 -41 45 -60 83 -53 32 6 36 4 70
-47 59 -87 72 -119 72 -180 1 -32 3 -58 6 -58 3 0 11 14 18 30 8 17 20 30 28
30 8 0 14 -2 14 -5 0 -12 -50 -81 -70 -98 -20 -16 -22 -26 -18 -78 2 -32 7
-61 9 -64 5 -4 238 124 265 146 6 5 14 28 18 51 8 52 51 92 165 156 131 72
153 85 194 111 l38 23 -23 16 c-34 24 -38 32 -38 94 0 50 3 59 29 80 15 14 42
30 60 37 l31 13 0 452 c0 338 -3 455 -12 464 -20 20 -50 14 -113 -23z m-315
-318 c0 -7 -19 -23 -42 -35 -24 -12 -88 -49 -143 -81 -55 -33 -127 -75 -160
-94 -33 -19 -76 -43 -95 -54 -19 -11 -89 -52 -155 -92 -66 -39 -126 -71 -132
-71 -27 0 -11 21 35 46 26 14 70 39 97 54 28 16 70 41 95 55 25 14 72 41 105
60 33 19 101 57 150 86 50 28 124 70 165 94 87 51 80 49 80 32z m0 -51 c-8 -8
-59 -40 -112 -70 -154 -88 -271 -156 -438 -254 -177 -103 -190 -110 -190 -91
0 8 33 31 73 53 39 21 86 47 102 57 43 28 453 263 525 301 41 22 60 23 40 4z
m-282 -73 c-5 -25 -28 -28 -28 -4 0 12 6 21 16 21 9 0 14 -7 12 -17z m-68 -30
c0 -5 -4 -15 -10 -23 -11 -18 -25 -7 -17 15 6 15 27 21 27 8z m240 -1 c0 -4
-37 -30 -82 -57 -46 -27 -103 -61 -128 -75 -25 -15 -74 -44 -110 -64 -36 -20
-74 -42 -85 -49 -70 -44 -94 -55 -99 -50 -13 13 -4 22 62 57 37 21 117 66 177
102 61 35 121 70 135 76 14 7 45 25 69 40 46 29 61 34 61 20z m-305 -42 c3 -6
-1 -13 -10 -16 -19 -8 -30 0 -20 15 8 14 22 14 30 1z m597 -90 c87 -24 133
-143 108 -277 -7 -38 -21 -84 -31 -103 -11 -19 -19 -39 -19 -45 0 -11 -54 -97
-80 -129 -105 -126 -182 -176 -271 -176 -71 0 -97 15 -134 74 -28 46 -30 56
-28 133 1 46 6 89 11 96 5 7 14 32 21 57 17 63 68 150 132 223 60 70 91 95
164 132 55 28 73 30 127 15z m-416 -231 l19 -21 -33 7 c-25 5 -43 1 -79 -19
-29 -17 -50 -23 -56 -17 -6 6 6 17 31 30 22 11 43 25 47 31 11 17 51 11 71
-11z m-488 -587 c2 -131 0 -152 -13 -152 -13 0 -15 23 -15 156 0 120 3 155 13
152 9 -4 13 -46 15 -156z m-70 -129 c-4 -204 -22 -213 -26 -13 -3 148 0 170
18 170 7 0 10 -52 8 -157z m-188 -3 c0 -80 -4 -131 -11 -135 -6 -4 -12 -5 -15
-2 -7 7 -6 256 1 268 17 27 25 -15 25 -131z m55 -42 c-4 -73 -8 -135 -10 -137
-2 -1 -8 0 -14 4 -7 4 -11 55 -11 136 0 125 1 129 21 129 21 0 21 -2 14 -132z
m-125 -118 c0 -144 -2 -170 -15 -170 -13 0 -15 25 -15 163 0 90 3 167 7 170
19 20 23 -8 23 -163z m190 0 c0 -53 -4 -90 -10 -90 -6 0 -10 37 -10 90 0 53 4
90 10 90 6 0 10 -37 10 -90z"/>
<path d="M2365 3775 c-86 -39 -152 -121 -201 -248 -42 -109 -25 -207 45 -254
41 -28 65 -29 122 -4 47 21 148 110 168 149 7 12 16 20 21 17 4 -3 6 4 3 15
-3 12 1 28 9 38 22 25 41 144 33 199 -5 34 -16 56 -40 80 -40 40 -85 43 -160
8z"/>
<path d="M6363 3992 c-41 -26 -32 -115 18 -164 16 -16 29 -36 29 -43 0 -7 6
-15 13 -18 8 -2 12 -24 12 -63 0 -54 2 -60 27 -71 36 -18 40 -48 27 -173 -6
-58 -11 -143 -10 -190 2 -100 21 -362 28 -372 19 -33 40 40 48 168 7 99 32
224 46 224 5 0 9 -11 9 -24 0 -33 26 -136 65 -263 3 -7 11 -10 20 -7 18 7 20
72 5 184 -5 41 -12 101 -16 132 -4 47 -8 56 -22 51 -12 -3 -14 -2 -4 4 15 11
7 39 -14 47 -9 3 -13 9 -10 14 8 14 -24 145 -40 163 -11 12 -14 29 -11 56 5
36 -13 87 -37 105 -6 4 2 24 17 47 31 47 32 51 12 51 -37 0 -74 31 -99 84 -14
29 -33 56 -42 60 -21 8 -56 7 -71 -2z"/>
<path d="M6690 3463 c0 -13 5 -23 10 -23 13 0 13 11 0 30 -8 12 -10 11 -10 -7z"/>
<path d="M6670 3419 c0 -5 5 -7 10 -4 6 3 10 1 10 -5 0 -6 5 -8 10 -5 6 4 8
11 5 16 -8 12 -35 11 -35 -2z"/>
<path d="M6170 3219 c-14 -6 -45 -7 -69 -4 -33 5 -42 4 -39 -7 8 -23 72 -52
100 -45 31 8 58 33 58 53 0 16 -14 17 -50 3z"/>
<path d="M4761 3084 c0 -11 3 -14 6 -6 3 7 2 16 -1 19 -3 4 -6 -2 -5 -13z"/>
<path d="M4680 3040 c0 -5 5 -10 10 -10 6 0 10 5 10 10 0 6 -4 10 -10 10 -5 0
-10 -4 -10 -10z"/>
<path d="M6585 3009 c-4 -5 1 -19 10 -29 42 -47 125 -59 125 -18 0 16 -5 19
-24 14 -16 -4 -35 2 -60 19 -42 29 -43 29 -51 14z"/>
<path d="M6410 2901 c0 -35 117 -89 134 -62 12 20 -6 43 -30 37 -15 -4 -32 2
-52 19 -36 30 -52 32 -52 6z"/>
<path d="M1988 2666 l-36 -32 14 -59 c21 -90 20 -96 -18 -93 -50 4 -49 -25 2
-57 58 -36 65 -38 83 -20 24 24 11 45 -24 38 -21 -4 -29 -2 -29 9 0 9 9 14 22
14 20 -1 24 6 32 51 5 29 5 79 0 116 l-9 65 -37 -32z"/>
<path d="M1801 2583 c1 -37 4 -102 8 -143 5 -66 8 -75 26 -75 15 0 22 11 32
60 7 33 12 93 13 133 0 66 -2 72 -21 72 -11 0 -29 5 -40 10 -18 10 -19 7 -18
-57z"/>
<path d="M5173 2515 c-48 -20 -70 -72 -54 -124 7 -25 19 -42 32 -46 24 -8 69
19 76 46 3 10 9 19 14 19 5 0 9 6 9 13 0 7 9 20 20 30 27 22 25 41 -5 61 -29
19 -50 20 -92 1z"/>
<path d="M1742 2377 c-6 -7 -8 -18 -4 -24 11 -17 81 -63 96 -63 20 0 39 27 32
45 -4 13 -10 14 -26 5 -24 -13 -44 -4 -36 16 4 9 -4 18 -20 24 -32 12 -29 13
-42 -3z"/>
<path d="M4797 2296 c-3 -8 1 -20 9 -27 12 -10 18 -9 31 3 8 9 12 21 9 27 -10
16 -43 14 -49 -3z"/>
<path d="M5217 2295 c-9 -22 -63 -28 -97 -12 -16 9 -30 11 -30 6 0 -6 -4 -8
-9 -5 -4 3 -6 -7 -4 -22 l5 -27 -19 23 -18 22 -60 -66 c-33 -37 -61 -70 -63
-75 -6 -16 -41 -10 -52 9 -9 14 -10 13 -4 -7 4 -15 2 -21 -4 -17 -18 11 -23
-11 -7 -27 8 -9 15 -20 15 -25 0 -27 88 -20 105 8 4 6 17 15 29 20 20 7 39 44
62 118 2 6 9 12 15 12 8 0 9 -12 5 -37 -9 -54 -9 -56 -8 -184 l2 -116 33 3 32
3 -34 -8 c-21 -6 -44 -5 -59 0 l-25 10 6 -213 c4 -117 10 -237 13 -266 l7 -53
-42 7 c-36 6 -41 4 -41 -13 0 -23 21 -43 68 -67 42 -21 78 -7 67 27 -10 32
-10 43 8 142 10 50 17 108 17 130 1 22 7 67 14 100 12 56 14 58 21 30 22 -90
57 -231 58 -240 1 -5 -16 -10 -37 -10 -54 0 -55 -18 -5 -55 49 -35 101 -39
107 -6 5 26 -13 42 -32 27 -8 -7 -20 -10 -26 -6 -18 11 -11 25 15 25 20 0 25
6 31 36 4 20 3 75 -2 123 -5 47 -8 136 -6 196 2 94 5 112 21 125 48 38 47 250
-3 322 -24 36 -62 54 -69 33z m-114 -35 c-3 -11 -7 -20 -9 -20 -2 0 -4 9 -4
20 0 11 4 20 9 20 5 0 7 -9 4 -20z m-18 -920 c-3 -5 -15 -10 -26 -10 -10 0
-19 5 -19 10 0 6 12 10 26 10 14 0 23 -4 19 -10z"/>
<path d="M4632 2237 c-22 -13 -20 -15 69 -112 50 -55 96 -106 103 -113 10 -10
18 -11 40 -1 14 7 25 16 24 20 -2 4 -29 37 -62 74 -37 42 -64 64 -73 61 -8 -3
-11 -1 -8 5 8 12 -41 79 -58 79 -7 -1 -22 -6 -35 -13z"/>
<path d="M4828 2165 c3 -19 8 -23 15 -16 8 8 7 16 -5 27 -14 14 -15 14 -10
-11z"/>
<path d="M5032 2035 c0 -16 2 -22 5 -12 2 9 2 23 0 30 -3 6 -5 -1 -5 -18z"/>
<path d="M3046 1444 c-11 -8 -41 -14 -68 -14 -34 0 -48 -4 -48 -14 0 -18 22
-26 75 -26 46 0 69 17 63 49 -3 18 -5 18 -22 5z"/>
<path d="M4350 1187 c-69 -41 -126 -80 -128 -88 -1 -8 12 -23 30 -33 181 -105
241 -136 262 -136 25 0 296 149 296 163 0 15 -24 32 -105 77 -44 24 -95 54
-114 67 -60 41 -99 32 -241 -50z"/>
<path d="M1192 998 l3 -63 46 -24 46 -24 44 24 44 24 3 63 c3 68 -9 80 -43 42
-10 -11 -30 -20 -45 -20 -29 0 -80 21 -80 33 0 4 -5 7 -10 7 -7 0 -10 -24 -8
-62z"/>
</g>
</svg>
